<?xml version="1.0" encoding="UTF-8"?>
<svg id="_Слой_2" data-name="Слой 2" xmlns="http://www.w3.org/2000/svg" viewBox="0 0 486.46 486.46">
  <defs>
    <style>
      .cls-1, .cls-2, .cls-3 {
        stroke-width: 0px;
      }

      .cls-2 {
        fill: #fff;
      }

      .cls-3 {
        fill: #f18704;
      }
    </style>
  </defs>
  <g id="_Слой_1-2" data-name="Слой 1">
    <circle class="cls-3" cx="243.23" cy="243.23" r="243.23"/>
    <g>
      <path class="cls-1" d="M100.07,396.1c-5.22.05-7.89-4.09-6.07-8.72,3.7-9.41,7.54-18.76,11.34-28.13,8.16-20.13,16.28-40.27,24.55-60.36.92-2.24,2.34-4.45,4.04-6.16,66.77-66.91,133.6-133.76,200.43-200.62,4.98-4.98,7.3-5.01,12.21-.11,16.98,16.97,33.96,33.94,50.92,50.93,4.75,4.76,4.73,7.12-.07,11.93-66.83,66.85-133.65,133.7-200.54,200.5-1.8,1.79-4.1,3.32-6.45,4.28-28.99,11.86-58.03,23.6-87.07,35.36-1.26.51-2.58.87-3.27,1.09ZM154.63,305.73c1.05-1.01,1.97-1.85,2.84-2.72,58.79-58.77,117.57-117.54,176.36-176.3.88-.88,1.72-1.83,2.68-2.62,2.66-2.22,5.81-2.18,8.15.01,2.39,2.25,2.5,5.65.2,8.43-.87,1.06-1.89,2-2.86,2.97-58.59,58.61-117.19,117.22-175.79,175.83-1.03,1.03-2.01,2.1-2.7,2.82,9.68,9.77,19.08,19.26,28.11,28.37,64.64-64.68,129.35-129.42,193.58-193.68-14.84-14.83-30-29.98-44.78-44.75-64.34,64.35-129,129.03-193.62,193.65,2.36,2.41,4.97,5.07,7.83,7.99ZM139.03,308.12c-4.95,12.13-9.89,24.1-14.64,36.15-.35.88.35,2.63,1.12,3.43,5.28,5.49,10.78,10.77,16.06,16.25,1.51,1.57,2.77,1.51,4.6.74,7.94-3.31,15.93-6.49,23.9-9.72,3.78-1.53,7.55-3.08,11.25-4.59-14.16-14.15-28.09-28.08-42.3-42.28ZM110.16,379.3c7.53-3.06,14.12-5.73,20.29-8.24-4.09-4.12-7.98-8.05-12.01-12.12-2.56,6.29-5.21,12.82-8.28,20.35Z"/>
      <path class="cls-2" d="M154.63,305.73c-2.86-2.92-5.47-5.58-7.83-7.99,64.62-64.63,129.28-129.31,193.62-193.65,14.78,14.77,29.94,29.92,44.78,44.75-64.22,64.26-128.93,129-193.58,193.68-9.03-9.11-18.43-18.6-28.11-28.37.69-.72,1.67-1.79,2.7-2.82,58.59-58.61,117.19-117.22,175.79-175.83.97-.97,1.99-1.91,2.86-2.97,2.3-2.78,2.18-6.18-.2-8.43-2.33-2.2-5.48-2.23-8.15-.01-.96.8-1.79,1.74-2.68,2.62-58.79,58.77-117.57,117.54-176.36,176.3-.88.88-1.79,1.72-2.84,2.72Z"/>
      <path class="cls-2" d="M139.03,308.12c14.21,14.2,28.14,28.13,42.3,42.28-3.7,1.51-7.47,3.05-11.25,4.59-7.97,3.23-15.97,6.4-23.9,9.72-1.83.76-3.08.83-4.6-.74-5.28-5.49-10.78-10.77-16.06-16.25-.77-.8-1.47-2.55-1.12-3.43,4.75-12.05,9.69-24.02,14.64-36.15Z"/>
      <path class="cls-2" d="M110.16,379.3c3.06-7.53,5.72-14.06,8.28-20.35,4.03,4.07,7.92,7.99,12.01,12.12-6.17,2.51-12.76,5.18-20.29,8.24Z"/>
    </g>
  </g>
</svg>