<?xml version="1.0" encoding="UTF-8"?>
<svg id="_Слой_2" data-name="Слой 2" xmlns="http://www.w3.org/2000/svg" viewBox="0 0 219.45 142.25">
  <defs>
    <style>
      .cls-1 {
        stroke: #ef7d00;
        stroke-width: .43px;
      }

      .cls-1, .cls-2, .cls-3, .cls-4 {
        fill: none;
      }

      .cls-1, .cls-3 {
        stroke-miterlimit: 10;
      }

      .cls-2 {
        stroke-width: .46px;
      }

      .cls-2, .cls-4 {
        stroke: #1d1d1b;
        stroke-linecap: round;
        stroke-linejoin: round;
      }

      .cls-3 {
        stroke: #9c9a83;
        stroke-width: .61px;
      }

      .cls-4 {
        stroke-width: .21px;
      }

      .cls-5 {
        fill: #1d1d1b;
      }

      .cls-5, .cls-6, .cls-7, .cls-8 {
        stroke-width: 0px;
      }

      .cls-6 {
        fill: #9c9a83;
      }

      .cls-7 {
        fill: #fff;
      }

      .cls-8 {
        fill: #fbba00;
      }
    </style>
  </defs>
  <g id="_Слой_1-2" data-name="Слой 1">
    <path class="cls-7" d="M201.61,63.3c-4.47,0-8.5,1.59-11.57,4.25-.64-.56-1.33-1.05-2.05-1.51,3.41-1.74,5.79-5.22,5.94-9.32.03-.84-.03-1.66-.18-2.47,1.35-1.76,2.18-3.94,2.26-6.3.07-1.96-.1-8.74-5.12-13.76h0c-3.1-3.09-7.33-4.7-11.99-4.56-.7.03-1.37.11-2.02.22V11.15c0-6.03-4.91-10.93-10.93-10.93s-10.93,4.9-10.93,10.93v1.81c-1.04.16-2.06.45-3.04.92l-3.18,1.51c-5.44,2.6-7.75,9.13-5.16,14.57.11.23.23.45.35.67-2.15.93-4.07,2.24-5.71,3.85-.25-.22-.48-.46-.74-.67-4.49-3.69-10.19-5.26-15.63-4.32-4.87.85-9.25,3.67-12.26,7.83-2.41-1.51-5.19-2.38-8.14-2.38-1.85,0-3.63.34-5.29.97-3.7-8.59-10.71-11.89-14.31-13.05h0c-11.97-3.87-24.78,1.63-30.26,9.2-3.53,4.88-2.43,11.73,2.47,15.27,1.35.97,2.84,1.59,4.38,1.87l.11,6.36c-1.93,1.83-3.1,4.27-3.34,6.95-.05.52-.04,1.04-.01,1.55h-2.89c-11.75,0-18.1,8.84-18.1,17.17v42.85c0,8.32,6.34,17.17,18.1,17.17h10.6c5.88,0,11.29-1.57,15.79-4.3,3.21,3.2,7.7,5.07,12.44,5.07,4.49,0,8.59-1.57,11.73-4.33h4.64c3.17,2.76,7.31,4.33,11.86,4.33s8.53-1.63,11.67-4.45c4.54,2.84,10.02,4.45,15.93,4.45,6.98,0,13.22-2.2,18.05-5.96,3.21,3.67,7.92,5.96,13.27,5.96,4.57,0,8.64-1.58,11.71-4.25,3.08,2.66,7.11,4.25,11.57,4.25,9.89,0,17.63-7.78,17.63-17.71v-43.31c0-9.93-7.75-17.71-17.63-17.71"/>
    <path class="cls-1" d="M201.61,63.3c-4.47,0-8.5,1.59-11.57,4.25-.64-.56-1.33-1.05-2.05-1.51,3.41-1.74,5.79-5.22,5.94-9.32.03-.84-.03-1.66-.18-2.47,1.35-1.76,2.18-3.94,2.26-6.3.07-1.96-.1-8.74-5.12-13.76h0c-3.1-3.09-7.33-4.7-11.99-4.56-.7.03-1.37.11-2.02.22V11.15c0-6.03-4.91-10.93-10.93-10.93s-10.93,4.9-10.93,10.93v1.81c-1.04.16-2.06.45-3.04.92l-3.18,1.51c-5.44,2.6-7.75,9.13-5.16,14.57.11.23.23.45.35.67-2.15.93-4.07,2.24-5.71,3.85-.25-.22-.48-.46-.74-.67-4.49-3.69-10.19-5.26-15.63-4.32-4.87.85-9.25,3.67-12.26,7.83-2.41-1.51-5.19-2.38-8.14-2.38-1.85,0-3.63.34-5.29.97-3.7-8.59-10.71-11.89-14.31-13.05h0c-11.97-3.87-24.78,1.63-30.26,9.2-3.53,4.88-2.43,11.73,2.47,15.27,1.35.97,2.84,1.59,4.38,1.87l.11,6.36c-1.93,1.83-3.1,4.27-3.34,6.95-.05.52-.04,1.04-.01,1.55h-2.89c-11.75,0-18.1,8.84-18.1,17.17v42.85c0,8.32,6.34,17.17,18.1,17.17h10.6c5.88,0,11.29-1.57,15.79-4.3,3.21,3.2,7.7,5.07,12.44,5.07,4.49,0,8.59-1.57,11.73-4.33h4.64c3.17,2.76,7.31,4.33,11.86,4.33s8.53-1.63,11.67-4.45c4.54,2.84,10.02,4.45,15.93,4.45,6.98,0,13.22-2.2,18.05-5.96,3.21,3.67,7.92,5.96,13.27,5.96,4.57,0,8.64-1.58,11.71-4.25,3.08,2.66,7.11,4.25,11.57,4.25,9.89,0,17.63-7.78,17.63-17.71v-43.31c0-9.93-7.75-17.71-17.63-17.71Z"/>
    <path class="cls-5" d="M123.54,38.97c-6.96,1.21-11.65,7.77-10.46,14.62,1.19,6.85,7.82,11.44,14.78,10.23,6.96-1.21,11.65-7.77,10.45-14.62-1.19-6.85-7.82-11.44-14.78-10.23"/>
    <path class="cls-5" d="M158.09,21.41c-.79-.48-1.77-.53-2.6-.13l-3.17,1.51c-1.36.65-1.94,2.28-1.29,3.64.55,1.16,1.82,1.76,3.03,1.5l.29,9.76c-1.54-.47-3.23-.58-4.95-.22-4.76.99-8.19,4.96-8.75,10.12-.95,8.75,2.44,14.5,9.05,15.38.57.07,1.11.11,1.62.11,1.54,0,2.77-.32,3.77-.76l.02.51c.04,1.48,1.26,2.65,2.73,2.65.03,0,.05,0,.08,0,1.51-.04,2.7-1.3,2.65-2.81l-1.17-39.02c-.03-.92-.52-1.77-1.31-2.25M153.49,56.96c-.7.58-1.71.78-3.09.6-4.35-.58-4.76-5.41-4.33-9.37.36-3.35,2.53-4.96,4.43-5.36,1.3-.27,2.97-.04,4.03,1.3l.3,9.93c-.03.28-.25,1.99-1.34,2.9"/>
    <path class="cls-5" d="M79.36,30.68c-8.05-2.6-17.4,1.1-21.08,6.2-.88,1.22-.61,2.93.61,3.82,1.22.88,2.93.61,3.82-.61.81-1.12,2.14-2.16,3.75-2.97l.42,23.69c-.17-.01-.33-.02-.5-.03-1.5-.15-2.83.98-2.96,2.48-.13,1.5.98,2.83,2.48,2.96,1.25.11,2.44.16,3.59.19.06,0,.11.02.17.02h.05s.05,0,.08,0c.25,0,.52.02.76.02,6.7,0,11.62-1.51,14.96-4.57,3.24-2.97,4.88-7.36,4.88-13.03,0-12.68-6.92-16.81-11.05-18.15M81.83,57.83c-2,1.83-5.19,2.84-9.48,3.07l-.46-25.45c1.95-.25,3.96-.15,5.78.43,4.75,1.54,7.26,6.02,7.26,12.95,0,4.14-1.02,7.08-3.11,9"/>
    <path class="cls-5" d="M101.49,41.88c-5.46,0-9.9,5.39-9.9,12.02s4.44,12.02,9.9,12.02,9.9-5.39,9.9-12.02-4.44-12.02-9.9-12.02M101.49,61.31c-2.87,0-5.29-3.39-5.29-7.41s2.42-7.41,5.29-7.41,5.29,3.39,5.29,7.41-2.42,7.41-5.29,7.41"/>
    <path class="cls-5" d="M173.37,65.88l-4.71,1.13V11.15c0-1.51-1.22-2.73-2.73-2.73s-2.73,1.22-2.73,2.73v56.1c0,2.94,2.39,5.34,5.34,5.34.22,0,.43-.03.64-.08l5.47-1.32c1.47-.35,2.37-1.83,2.02-3.3-.35-1.47-1.83-2.37-3.3-2.02"/>
    <path class="cls-5" d="M185.09,40c-1.51-1.51-3.57-2.24-5.9-2.17-4.89.18-8.18,5.59-8.18,10.54,0,4.71,3.1,10.32,11.89,10.66.04,0,.07,0,.11,0,1.46,0,2.67-1.15,2.73-2.63.06-1.51-1.12-2.78-2.63-2.84-2.75-.1-4.68-.86-5.72-2.23l8.05-1.06c1.32-.17,2.33-1.28,2.37-2.61.02-.49.08-4.86-2.72-7.67M176.96,45.89c.6-1.52,1.66-2.56,2.43-2.59.06,0,.11,0,.17,0,.97,0,1.41.32,1.66.57.35.35.6.84.77,1.36l-5.03.66Z"/>
    <path class="cls-5" d="M52.34,130.52c-5.26,0-7.35-3.48-7.35-6.42v-42.85c0-2.94,2.09-6.42,7.35-6.42h10.6c10.36,0,17.87,6.81,17.87,15.86v23.98c0,8.89-7.5,15.86-17.87,15.86h-10.6ZM62.94,117.44c2.01,0,4.1-1.55,4.1-4.64v-20.42c0-3.02-2.09-4.49-4.1-4.49h-4.18v29.55h4.18Z"/>
    <path class="cls-5" d="M91.17,131.29c-3.87,0-7.89-3.1-6.11-8.89l13.07-43.31c1.16-3.71,4.64-5.03,7.11-5.03,2.79,0,6.11,1.55,7.12,5.03l13.15,43.31c1.62,5.41-2.09,8.89-6.11,8.89-2.17,0-5.26-.93-6.65-4.33h-15.08c-1.39,3.4-4.41,4.33-6.5,4.33M101.53,114.74h7.35l-1.01-3.25c-1.01-3.25-1.7-6.81-2.4-11.22h-.39c-.85,4.41-1.55,7.97-2.55,11.22l-1,3.25Z"/>
    <path class="cls-5" d="M129.68,118.45l-.39-1.86c-1.08-5.34,2.09-8.82,6.26-8.82,3.09,0,5.72,1.85,6.73,6.03l.46,1.93c.54,2.09,2.09,3.09,4.18,3.09,2.63,0,4.02-1.62,4.02-3.63,0-1.7-1.08-3.48-2.7-4.64l-9.75-7.27c-3.63-2.71-7.89-6.34-7.89-13.46,0-9.36,7.35-15.78,17.02-15.78,6.34,0,16.94,2.78,16.94,14.23v.23c0,3.25-2.4,6.11-6.5,6.11-3.71,0-5.49-2.55-6.34-4.8l-.39-1.01c-.85-2.09-2.63-2.32-3.63-2.32-2.48,0-3.48,1.55-3.48,3.17,0,1.93,1.31,3.09,1.93,3.48l12.22,8.89c1.78,1.32,6.19,5.1,6.19,12.68,0,10.36-8.12,16.55-17.56,16.55-8.66,0-15.78-5.26-17.32-12.84"/>
    <path class="cls-5" d="M208.49,124.33c0,3.25-2.17,6.96-6.88,6.96s-6.88-3.71-6.88-6.96v-15.39h-9.51v15.39c0,3.25-2.09,6.96-6.88,6.96s-6.88-3.71-6.88-6.96v-43.31c0-3.25,2.17-6.96,6.88-6.96s6.88,3.71,6.88,6.96v14.77h9.51v-14.77c0-3.25,2.17-6.96,6.88-6.96s6.88,3.71,6.88,6.96v43.31Z"/>
    <path class="cls-7" d="M55.39,119.58c1.54-.04,3.32.95,3.37,3.18.05,2.23-1.68,3.3-3.22,3.34H21.24c-1.54.04-3.32-.95-3.38-3.18-.05-2.23,1.68-3.3,3.22-3.34h34.3Z"/>
    <path class="cls-7" d="M37.8,102.58c1.54-.04,3.32.95,3.37,3.18.05,2.23-1.68,3.3-3.22,3.34h-10.05c-1.54.04-3.32-.95-3.37-3.18-.05-2.23,1.68-3.3,3.22-3.34h10.05Z"/>
    <path class="cls-7" d="M18.01,102.58c1.54-.04,3.32.95,3.37,3.18.05,2.23-1.68,3.3-3.22,3.34h-1.23c-1.54.04-3.32-.95-3.38-3.18-.05-2.23,1.68-3.3,3.22-3.34h1.23Z"/>
    <path class="cls-7" d="M37.12,112.09c1.54-.04,3.32.95,3.37,3.18.05,2.23-1.68,3.3-3.22,3.34H3.38c-1.54.04-3.32-.95-3.38-3.18-.05-2.23,1.68-3.3,3.22-3.34h33.9Z"/>
    <path class="cls-8" d="M134.85,40.94c-.21,0-.41-.04-.6-.12l-.97-.4c-.4-.16-.71-.47-.88-.86-.17-.4-.17-.83,0-1.23l.2-.49c.25-.61.83-1,1.49-1,.21,0,.41.04.6.12l.97.39c.82.33,1.21,1.27.88,2.09l-.2.49c-.25.61-.83,1-1.49,1"/>
    <path class="cls-5" d="M134.08,37.3c.14,0,.29.03.43.08l.97.4c.59.24.87.91.63,1.49l-.2.49c-.18.45-.61.71-1.06.71-.14,0-.29-.03-.43-.09l-.97-.39c-.59-.24-.87-.91-.63-1.49l.2-.49c.18-.45.61-.72,1.06-.72M134.08,36.38h0c-.84,0-1.6.51-1.91,1.29l-.2.49c-.21.51-.2,1.07,0,1.58.21.51.61.9,1.12,1.11l.97.39c.25.1.51.15.78.15.84,0,1.6-.51,1.91-1.29l.2-.49c.43-1.05-.08-2.26-1.13-2.69l-.97-.39c-.25-.1-.51-.15-.78-.15"/>
    <rect class="cls-8" x="123.58" y="35.47" width="4.78" height="4.18" transform="translate(-5.29 30.55) rotate(-13.55)"/>
    <path class="cls-5" d="M127.46,35.52l.76,3.17-3.75.9-.76-3.17,3.75-.9ZM128.14,34.41l-.89.22-3.75.9-.89.22.22.89.76,3.17.21.89.89-.22,3.75-.9.89-.22-.21-.89-.76-3.17-.21-.89Z"/>
    <path class="cls-8" d="M123.46,37.92c-.83,0-1.54-.56-1.73-1.37l-.15-.6c-.23-.96.36-1.92,1.32-2.15l4.1-.99c.14-.03.28-.05.42-.05.83,0,1.54.56,1.73,1.37l.14.6c.11.46.04.94-.21,1.35-.25.41-.64.69-1.1.8l-4.1.99c-.14.03-.28.05-.42.05"/>
    <path class="cls-5" d="M127.41,33.23c.6,0,1.14.41,1.29,1.01l.14.6c.17.71-.27,1.43-.98,1.6l-4.1.99c-.1.03-.21.04-.31.04-.6,0-1.14-.41-1.29-1.02l-.14-.6c-.17-.71.27-1.43.98-1.6l4.1-.99c.11-.03.21-.04.31-.04M127.41,32.31c-.18,0-.35.02-.53.06l-4.1.99c-1.2.29-1.94,1.5-1.65,2.71l.14.6c.24,1.01,1.14,1.72,2.18,1.72.18,0,.35-.02.53-.06l4.1-.99c1.2-.29,1.94-1.5,1.65-2.71l-.14-.6c-.24-1.01-1.14-1.72-2.18-1.72"/>
    <path class="cls-6" d="M129.34,64.04c-5.76,0-10.73-3.92-12.08-9.53-.78-3.23-.25-6.57,1.48-9.4s4.47-4.82,7.69-5.6c.96-.23,1.95-.35,2.93-.35,5.76,0,10.73,3.92,12.08,9.53,1.61,6.66-2.51,13.39-9.18,15-.96.23-1.95.35-2.92.35"/>
    <path class="cls-5" d="M129.36,40.07c5.34,0,9.94,3.63,11.2,8.83,1.49,6.18-2.33,12.42-8.51,13.91-.89.21-1.8.32-2.71.32-5.34,0-9.94-3.63-11.2-8.83-1.49-6.18,2.33-12.42,8.51-13.91.89-.21,1.8-.32,2.71-.32M129.36,38.25c-1.03,0-2.09.12-3.14.38-7.16,1.73-11.57,8.93-9.85,16.1,1.47,6.11,6.94,10.22,12.96,10.22,1.03,0,2.09-.12,3.14-.37,7.16-1.73,11.57-8.93,9.85-16.1-1.47-6.11-6.94-10.22-12.96-10.22"/>
    <path class="cls-5" d="M131.87,41.93l-1.64,9.57c-.01.08-.1.14-.18.12l-1.4-.35c-.08-.02-.13-.11-.1-.19l3.04-9.22c.06-.17.31-.1.28.07"/>
    <path class="cls-5" d="M127.32,51.57c.01-1.12.94-2.01,2.06-2,1.12.02,2.01.94,2,2.06-.02,1.12-.94,2.02-2.06,2-1.12-.02-2.01-.94-2-2.06"/>
    <path class="cls-3" d="M127.32,51.57c.01-1.12.94-2.01,2.06-2,1.12.02,2.01.94,2,2.06-.02,1.12-.94,2.02-2.06,2-1.12-.02-2.01-.94-2-2.06Z"/>
    <line class="cls-2" x1="122.74" y1="47.55" x2="121.8" y2="46.98"/>
    <line class="cls-2" x1="127.54" y1="44.06" x2="127.28" y2="43"/>
    <line class="cls-2" x1="133.39" y1="44.99" x2="133.97" y2="44.05"/>
    <line class="cls-2" x1="137.95" y1="49.52" x2="136.88" y2="49.78"/>
    <line class="cls-2" x1="136.9" y1="56.21" x2="135.96" y2="55.64"/>
    <line class="cls-2" x1="131.17" y1="59.13" x2="131.42" y2="60.2"/>
    <line class="cls-2" x1="120.75" y1="53.67" x2="121.82" y2="53.41"/>
    <line class="cls-2" x1="125.31" y1="58.21" x2="124.73" y2="59.14"/>
    <line class="cls-4" x1="121.46" y1="50.32" x2="122.44" y2="50.48"/>
    <line class="cls-4" x1="124.67" y1="45.11" x2="125.25" y2="45.92"/>
    <line class="cls-4" x1="135.03" y1="47.5" x2="135.83" y2="46.92"/>
    <line class="cls-4" x1="136.27" y1="52.72" x2="137.25" y2="52.87"/>
    <line class="cls-4" x1="133.45" y1="57.28" x2="134.03" y2="58.08"/>
    <line class="cls-4" x1="128.23" y1="58.51" x2="128.07" y2="59.49"/>
    <line class="cls-4" x1="122.87" y1="56.27" x2="123.67" y2="55.69"/>
  </g>
</svg>