<?xml version="1.0" encoding="UTF-8"?>
<svg id="_Слой_2" data-name="Слой 2" xmlns="http://www.w3.org/2000/svg" viewBox="0 0 45.68 43.8">
  <defs>
    <style>
      .cls-1 {
        stroke: #000;
        stroke-linecap: round;
        stroke-linejoin: round;
        stroke-width: 3.28px;
      }
    </style>
  </defs>
  <g id="_Слой_1-2" data-name="Слой 1">
    <path class="cls-1" d="M24.26,2.55c1.9,3.82,3.8,7.63,5.7,11.45,4.23.6,8.44,1.2,12.67,1.8.62.09,1.14.52,1.33,1.11.2.59.04,1.24-.41,1.68-3.04,2.99-6.09,5.98-9.13,8.96.73,4.2,1.47,8.4,2.2,12.6.11.62-.15,1.24-.65,1.61-.5.37-1.18.41-1.73.13-3.79-1.97-7.57-3.94-11.35-5.91-3.77,2-7.54,3.99-11.31,5.99-.55.29-1.22.24-1.72-.12-.51-.37-.76-.99-.66-1.6.71-4.21,1.41-8.41,2.12-12.61-3.06-2.97-6.13-5.94-9.19-8.9-.45-.43-.62-1.08-.42-1.68.19-.6.7-1.03,1.32-1.12,4.22-.63,8.44-1.26,12.66-1.88,1.87-3.83,3.75-7.66,5.62-11.49.28-.56.84-.92,1.47-.92.62,0,1.19.35,1.47.91Z"/>
  </g>
</svg>